<?xml version="1.0" standalone="no"?>
<!DOCTYPE svg PUBLIC "-//W3C//DTD SVG 20010904//EN"
 "http://www.w3.org/TR/2001/REC-SVG-20010904/DTD/svg10.dtd">
<svg version="1.0" xmlns="http://www.w3.org/2000/svg"
 width="575.000000pt" height="650.000000pt" viewBox="0 0 575.000000 650.000000"
 preserveAspectRatio="xMidYMid meet">

<g transform="translate(0.000000,650.000000) scale(0.100000,-0.100000)"
fill="#000000" stroke="none">
<path d="M0 5979 c0 -490 1 -520 18 -517 13 2 18 15 20 50 2 26 -2 56 -7 67
-9 16 -7 21 10 26 18 6 20 12 14 45 -7 40 0 80 14 80 4 0 6 -26 4 -59 -3 -44
0 -60 10 -64 11 -4 13 -21 9 -76 -5 -69 -4 -70 22 -77 31 -7 34 -29 6 -37 -16
-4 -20 -14 -20 -50 0 -42 2 -45 31 -51 39 -8 142 -8 162 0 12 4 13 13 6 45 -5
22 -14 48 -21 58 -7 11 -8 26 -3 37 5 11 9 48 10 84 1 63 2 65 29 68 35 4 56
-12 38 -30 -16 -16 -15 -103 1 -116 6 -5 21 -12 32 -14 31 -5 24 -32 -10 -38
-27 -4 -30 -10 -33 -44 -2 -21 1 -43 6 -48 9 -9 228 -15 236 -7 8 8 -19 94
-31 102 -18 11 -16 37 2 37 12 0 15 15 15 74 0 79 13 103 48 92 17 -6 18 -14
14 -80 l-4 -73 31 -11 c39 -14 39 -20 2 -33 -25 -9 -30 -17 -34 -52 -2 -23 0
-46 4 -51 9 -10 373 -19 442 -10 l47 6 0 48 c0 43 -3 49 -25 54 -26 7 -35 36
-11 36 30 0 46 30 46 85 0 30 -5 57 -10 60 -8 5 -8 11 0 20 16 20 47 24 67 10
15 -11 16 -15 3 -30 -20 -24 -24 -135 -5 -135 15 0 28 -27 19 -41 -3 -5 -12
-9 -20 -9 -18 0 -20 -90 -2 -108 19 -19 4 -24 -84 -29 -53 -2 -88 -9 -98 -18
-20 -18 -30 -18 -65 -5 -16 6 -215 12 -481 15 l-454 6 0 -921 0 -920 23 0 c48
0 344 -20 377 -26 33 -6 34 -6 15 -21 -15 -10 -38 -13 -90 -9 -38 2 -127 6
-197 8 l-128 4 0 -498 0 -497 57 2 c37 1 58 -2 60 -10 3 -9 -12 -12 -56 -10
l-61 2 0 -227 0 -228 49 0 c28 0 53 -5 56 -11 9 -14 7 -15 -37 -22 -27 -4 -42
-1 -53 9 -13 14 -15 -89 -15 -940 0 -561 4 -956 9 -956 10 0 26 216 19 255 -7
33 26 64 50 48 9 -5 17 -14 17 -19 -1 -12 -16 -209 -20 -252 l-3 -32 109 0
109 0 -2 128 c-2 70 -7 130 -13 135 -13 10 24 39 45 35 13 -3 15 -27 15 -151
l0 -147 95 0 95 0 2 130 c2 108 0 130 -12 130 -24 0 -17 20 10 30 25 9 25 11
25 121 0 88 -3 116 -16 130 -14 16 -14 20 1 49 13 25 15 48 10 113 -3 45 -8
142 -11 216 -4 116 -3 136 12 152 20 22 54 25 54 5 0 -8 -5 -18 -10 -21 -6 -4
-9 -9 -6 -13 2 -4 7 -59 11 -122 4 -63 9 -118 11 -121 2 -4 -3 -12 -12 -19
-12 -10 -15 -37 -16 -124 0 -61 -2 -164 -5 -230 -3 -71 0 -123 6 -129 6 -6 8
-65 4 -153 l-5 -144 109 0 108 0 2 28 c2 47 14 156 20 189 5 29 3 33 -17 33
-12 0 -20 5 -18 11 5 14 73 38 85 30 5 -3 9 -31 9 -61 0 -30 2 -94 5 -142 l4
-88 106 0 105 0 3 126 c1 76 -3 131 -9 139 -7 9 -6 16 4 24 22 18 51 9 49 -14
-2 -11 -5 -77 -9 -147 l-6 -128 56 0 56 0 0 54 c0 30 4 57 9 61 13 8 25 -33
22 -77 l-3 -38 96 0 c53 0 96 3 97 8 0 4 2 54 4 111 2 72 7 106 17 112 10 7
10 9 1 9 -7 0 -13 7 -13 15 0 8 6 15 14 15 18 0 26 -48 28 -172 l2 -98 114 0
c88 0 112 3 106 12 -6 10 -4 11 7 1 8 -9 47 -13 116 -13 l102 0 3 383 c1 210
2 487 2 615 1 127 4 232 9 232 4 0 7 8 7 18 0 13 -2 14 -9 3 -13 -21 -24 151
-17 271 4 57 9 159 12 228 8 178 13 202 46 211 15 4 35 14 44 23 8 9 19 16 23
16 4 0 26 -23 48 -50 l41 -50 6 -173 c15 -457 27 -1037 27 -1364 l0 -363 249
0 248 0 6 38 c15 98 55 511 71 732 8 110 24 276 30 316 4 24 12 33 30 36 13 3
22 2 20 -2 -12 -20 82 -28 116 -10 10 6 35 11 54 12 24 1 39 8 46 20 13 24 39
23 39 -2 0 -11 5 -20 10 -20 6 0 10 -6 10 -14 0 -8 7 -16 15 -20 20 -7 19 10
-2 32 -24 23 -16 80 15 100 26 17 26 20 12 -138 -6 -58 -19 -215 -30 -350 -18
-209 -43 -477 -66 -677 l-5 -53 876 0 c491 0 874 4 871 9 -3 4 4 17 16 27 12
11 18 14 15 7 -4 -6 -4 -18 -1 -27 5 -14 36 -16 244 -16 l238 0 2 108 c1 59 3
125 5 147 1 22 -2 45 -7 52 -13 16 27 36 58 29 27 -7 32 -21 10 -29 -11 -5
-14 -37 -15 -156 l-2 -151 111 0 112 0 -6 128 c-3 70 -5 139 -5 155 -1 17 -6
27 -16 27 -26 0 -16 18 16 29 41 14 71 -1 64 -32 -6 -29 -8 -89 -7 -209 l2
-98 50 0 50 0 0 734 0 735 -27 4 -28 4 28 2 27 1 0 560 c0 308 -3 560 -6 560
-3 0 -14 -5 -25 -10 -17 -9 -18 -14 -7 -29 18 -25 16 -550 -2 -561 -7 -4 -14
-32 -16 -61 -2 -30 -6 -78 -9 -106 -5 -48 -3 -53 14 -53 27 0 37 -21 18 -35
-12 -8 -13 -15 -6 -22 8 -8 5 -14 -8 -22 -18 -9 -20 -19 -16 -83 4 -78 -8
-117 -27 -88 -6 8 -10 47 -10 85 1 113 -2 130 -25 130 -11 0 -21 8 -23 18 -3
13 2 16 20 15 22 -3 23 -2 23 106 l0 109 -30 11 c-24 9 -31 17 -33 46 -7 84
-4 260 6 310 6 30 14 84 17 120 4 52 10 68 28 82 12 9 20 18 17 20 -3 2 -13 8
-24 13 -18 10 -24 30 -8 30 24 1 29 22 30 132 2 120 12 153 44 140 11 -4 14
-31 12 -130 -2 -123 -2 -125 22 -136 l24 -11 0 371 0 370 -432 -3 c-273 -2
-436 -7 -441 -13 -6 -6 -10 -6 -14 3 -2 6 -9 12 -14 12 -6 0 -8 -4 -5 -8 2 -4
-5 -9 -17 -9 -17 -2 -19 0 -7 7 10 7 -26 8 -100 4 -112 -6 -230 7 -230 26 0 8
504 18 898 18 117 0 215 2 218 4 8 9 12 148 4 143 -12 -8 -33 23 -26 40 3 8
12 15 20 15 9 0 13 6 11 13 -2 6 -6 66 -9 132 -3 66 -8 146 -12 178 -5 46 -4
61 10 75 19 22 31 199 14 219 -6 8 -7 27 -3 45 4 18 9 72 12 121 4 74 2 87
-11 87 -10 0 -16 9 -16 24 0 14 -5 28 -10 31 -6 4 -8 14 -6 23 3 10 8 46 10
82 13 163 18 191 42 206 17 12 27 13 43 4 19 -10 21 -20 21 -131 0 -66 5 -129
11 -140 8 -15 7 -24 -2 -35 -8 -10 -15 -79 -20 -196 -14 -319 -14 -307 4 -321
13 -10 14 -21 6 -67 -5 -30 -11 -121 -14 -203 -5 -127 -4 -148 10 -153 17 -7
20 -35 6 -50 -6 -5 -11 -38 -13 -74 l-3 -65 33 -3 32 -3 0 1011 c0 708 -3
1009 -11 1005 -16 -11 -59 4 -59 20 0 10 11 15 35 15 29 0 35 4 35 21 0 11 -4
18 -10 14 -5 -3 -20 -3 -34 1 -33 8 -23 33 12 31 l27 -2 3 128 c2 91 -1 127
-8 122 -6 -4 -23 -4 -36 -1 -19 5 -23 10 -16 19 16 19 27 193 13 201 -15 10
-14 37 3 72 8 16 18 64 21 107 6 67 5 81 -11 98 -16 17 -16 22 -4 29 8 6 21
10 28 10 7 0 12 13 12 29 0 31 -29 48 -49 28 -8 -8 -14 -8 -22 0 -6 6 -18 9
-25 6 -8 -3 -14 0 -14 7 0 6 5 8 10 5 6 -3 10 -1 10 5 0 8 9 10 24 6 14 -3 28
-1 31 5 4 6 13 8 21 5 11 -4 14 7 14 49 l0 55 -660 0 -660 0 0 -187 c0 -169
-6 -551 -14 -988 -2 -88 -7 -430 -10 -760 -4 -330 -9 -622 -11 -650 -1 -27 -4
-137 -6 -243 -1 -106 -5 -210 -8 -230 l-6 -37 -19 49 c-17 45 -18 90 -18 760
0 391 3 988 7 1326 8 676 8 697 6 853 l-1 107 -46 0 -46 0 4 -245 c3 -177 1
-245 -7 -249 -23 -8 -68 7 -72 25 -3 11 -9 19 -14 19 -14 0 -11 38 6 63 15 24
18 59 16 172 -1 39 0 103 4 143 l6 72 -110 0 c-78 0 -110 -4 -114 -12 -2 -7
-5 -65 -5 -128 -1 -63 -4 -151 -8 -196 -6 -79 -6 -81 17 -88 l24 -6 -23 -13
c-17 -10 -20 -15 -10 -25 18 -18 -3 -34 -38 -30 -37 4 -45 38 -34 142 5 44 11
143 14 219 l5 137 -98 0 -98 0 -2 -187 c-1 -102 -5 -191 -8 -196 -3 -6 2 -16
12 -23 17 -13 17 -15 2 -32 -13 -14 -14 -21 -4 -31 14 -14 -6 -31 -39 -31 -44
0 -49 21 -46 199 2 91 5 196 7 234 l4 67 -107 0 -107 0 2 -197 c1 -108 4 -202
7 -210 3 -7 15 -13 26 -13 28 0 25 -14 -5 -28 -15 -7 -22 -17 -19 -25 3 -8 -6
-21 -19 -30 -23 -15 -26 -15 -47 8 -22 24 -22 27 -18 259 l3 236 -97 0 -98 0
-2 -87 c-5 -205 0 -326 14 -335 10 -7 9 -11 -5 -22 -12 -9 -14 -16 -8 -21 16
-9 13 -32 -3 -38 -23 -9 -56 4 -56 22 0 9 -5 22 -11 28 -9 9 -9 23 -1 55 6 24
14 97 17 163 3 66 8 146 11 178 l6 57 -111 0 -111 0 0 -208 c0 -127 4 -212 10
-218 11 -11 -12 -68 -31 -79 -13 -9 -59 41 -59 63 0 10 4 32 10 48 5 16 11
111 13 212 l3 182 -115 0 -116 0 -3 -210 c-3 -148 -1 -210 7 -210 6 0 11 -7
11 -15 0 -8 -5 -15 -11 -15 -6 0 -9 -6 -6 -14 3 -8 0 -20 -8 -26 -18 -15 -71
-9 -67 8 1 7 -2 21 -8 31 -6 12 -6 30 1 52 6 19 12 108 15 198 2 91 6 173 10
183 5 17 -3 18 -94 18 l-100 0 -7 -67 c-3 -38 -8 -134 -11 -216 -4 -127 -3
-148 10 -153 22 -8 20 -27 -3 -41 -16 -10 -20 -24 -20 -67 0 -31 -2 -60 -5
-65 -3 -5 1 -14 9 -21 8 -7 15 -18 15 -25 0 -13 -65 -47 -110 -59 -14 -3 -19
-3 -13 0 8 3 11 15 7 30 -4 16 -2 24 6 24 26 0 39 35 40 106 0 55 -4 73 -15
78 -23 8 -19 46 5 46 24 0 25 13 4 45 -12 18 -13 28 -5 44 6 11 13 55 15 98 4
71 2 80 -19 103 -22 23 -23 30 -16 83 l8 57 -89 0 -89 0 2 -65 c2 -49 -2 -69
-15 -84 -14 -16 -16 -38 -14 -146 2 -113 4 -129 20 -133 24 -6 23 -33 -2 -39
-11 -3 -20 -10 -21 -17 -10 -123 -9 -129 8 -141 15 -11 18 -28 18 -89 l0 -75
-50 -26 -50 -26 -9 91 c-7 75 -6 94 7 108 8 10 18 48 22 88 5 58 4 73 -9 83
-18 15 -21 48 -5 53 7 2 12 40 15 93 2 50 6 109 9 132 6 38 4 44 -17 54 -22
10 -24 15 -20 75 l4 64 -76 0 -77 0 5 -59 c5 -55 3 -60 -19 -75 -23 -15 -25
-23 -25 -96 0 -43 5 -91 12 -105 8 -19 8 -31 0 -50 -11 -23 -10 -25 12 -25 13
0 27 -7 30 -16 9 -22 9 -22 -21 -26 -28 -3 -28 -4 -31 -88 -3 -76 -1 -87 18
-102 18 -15 20 -27 19 -132 0 -63 2 -119 5 -124 6 -10 -116 -82 -139 -82 -22
0 -18 21 5 27 22 6 26 33 8 51 -8 8 -8 15 1 26 8 10 10 43 5 119 -6 98 -5 106
15 126 18 18 21 33 21 100 0 72 -2 79 -21 84 -26 7 -20 31 9 35 18 3 19 6 10
33 -7 22 -7 38 1 55 6 14 11 58 11 99 0 72 -1 75 -26 81 -25 6 -25 8 -21 75
l5 69 -88 0 -87 0 3 -47 c2 -25 6 -54 9 -63 8 -25 -17 -41 -54 -34 -34 7 -47
19 -31 29 5 3 10 31 10 61 l0 54 -86 0 -86 0 6 -432 c6 -439 12 -560 27 -566
13 -5 11 -72 -2 -72 -5 0 -7 5 -3 12 4 6 3 8 -3 5 -5 -3 -10 -74 -11 -169 0
-125 3 -170 14 -193 9 -19 14 -55 13 -102 -1 -41 1 -76 5 -80 3 -3 1 -12 -5
-19 -11 -14 -16 -315 -5 -332 4 -6 2 -32 -4 -57 -6 -25 -8 -50 -5 -55 3 -5 1
-11 -4 -14 -5 -3 -7 -81 -5 -178 3 -182 4 -327 2 -965 -1 -367 -2 -394 -21
-437 -11 -25 -22 -46 -26 -46 -3 0 -4 111 -1 247 3 137 2 268 -2 292 -5 27 -4
49 3 57 7 8 8 123 4 356 -3 188 -8 883 -10 1543 -2 660 -4 1201 -5 1203 -1 8
-58 -1 -72 -12 -16 -11 -17 -36 -18 -227 0 -118 1 -225 3 -239 2 -21 -3 -26
-27 -28 -31 -4 -58 14 -41 26 9 6 14 120 19 402 l1 65 -73 9 c-44 5 -97 5
-130 0 l-57 -9 -2 -55 c-2 -30 -3 -64 -3 -75 0 -11 0 -88 0 -171 l-1 -150 27
-13 c37 -16 18 -33 -32 -29 l-39 3 4 242 c4 285 16 263 -139 263 l-101 0 5
-52 c3 -29 8 -132 12 -228 3 -99 11 -181 17 -188 14 -18 -4 -35 -34 -30 l-24
3 0 240 c0 148 -4 243 -10 247 -5 4 -133 8 -282 8 l-273 0 0 -521z m75 261 c3
-102 8 -192 10 -200 7 -25 -12 -47 -31 -35 -14 9 -16 35 -15 213 1 112 5 210
8 219 14 35 21 -19 28 -197z m261 173 c-10 -10 -19 5 -10 18 6 11 8 11 12 0 2
-7 1 -15 -2 -18z m5104 -28 c16 -1 26 -8 28 -21 2 -17 -4 -19 -70 -18 -55 1
-74 5 -76 15 -3 17 54 39 78 31 8 -3 26 -6 40 -7z m-5099 -110 c3 -196 1 -231
-11 -219 -12 12 -22 222 -10 229 5 3 6 21 3 40 -4 23 -2 35 6 35 7 0 11 -29
12 -85z m5099 6 c0 -11 -5 -21 -10 -23 -7 -2 -12 -93 -15 -252 -3 -137 -7
-251 -9 -254 -3 -2 -23 -1 -46 3 -34 6 -38 9 -26 18 12 10 16 36 17 125 1 62
-1 116 -5 119 -3 3 -1 13 3 22 11 20 24 141 22 203 -2 37 2 47 16 51 39 10 53
7 53 -12z m-3900 -96 c15 -18 10 -45 -13 -59 -26 -16 -62 27 -47 55 13 23 43
25 60 4z m27 -107 c18 -15 8 -25 -32 -31 -43 -7 -85 7 -85 27 0 26 88 29 117
4z m-1202 -58 c0 -10 -12 -16 -37 -18 -28 -2 -38 1 -38 12 0 18 17 25 50 23
15 -1 25 -8 25 -17z m1178 -154 c15 -22 18 -57 25 -331 1 -34 -7 -115 -14
-140 -11 -39 -6 -66 14 -82 14 -10 8 -12 -40 -13 -31 0 -60 5 -63 10 -3 6 -2
10 3 10 5 0 12 14 16 32 4 22 1 37 -11 51 -17 18 -17 19 0 32 21 15 22 53 2
82 -10 14 -12 24 -5 28 14 9 12 42 -2 48 -10 3 -10 9 -1 25 15 25 7 220 -9
240 -9 10 -8 16 3 23 27 17 66 10 82 -15z m-1433 -68 c0 -10 -10 -22 -21 -29
-32 -17 -57 11 -41 45 10 22 14 23 36 13 14 -7 26 -20 26 -29z m512 25 c23
-21 23 -40 -2 -53 -40 -22 -80 26 -48 58 16 16 28 15 50 -5z m3338 -25 c0 -5
-10 -18 -22 -28 -27 -21 -48 -10 -48 24 0 36 19 47 46 29 13 -8 24 -20 24 -25z
m-3085 -8 c0 -33 -30 -49 -52 -28 -14 14 -15 22 -5 42 9 21 15 24 34 17 15 -5
23 -16 23 -31z m307 15 c10 -22 9 -29 -8 -46 -20 -19 -21 -19 -37 -1 -14 15
-15 25 -8 46 13 33 38 34 53 1z m3066 -7 c2 -20 -1 -28 -12 -28 -27 0 -46 12
-46 29 0 43 53 41 58 -1z m-3887 6 c11 -14 10 -18 -6 -30 -10 -8 -25 -14 -32
-14 -15 0 -36 37 -28 50 10 16 51 12 66 -6z m3339 -4 c9 -17 7 -22 -15 -32
-37 -17 -56 3 -30 32 23 25 32 25 45 0z m-273 -129 c-5 -23 -2 -31 11 -35 15
-5 17 -18 16 -78 -1 -40 1 -77 4 -83 3 -5 6 -53 6 -107 l1 -98 -66 0 c-128 0
-219 12 -219 28 0 12 11 14 57 9 32 -3 77 -3 100 0 l42 6 0 55 c-1 45 -4 55
-20 59 -25 7 -25 43 1 50 18 5 20 14 20 74 0 55 3 71 16 76 11 4 14 14 10 33
-5 28 0 40 17 40 5 0 7 -13 4 -29z m830 -32 c7 -7 8 -24 2 -47 -4 -20 -9 -96
-11 -169 l-3 -132 -50 -5 c-27 -3 -182 -7 -342 -10 -254 -5 -293 -3 -293 9 0
10 11 15 35 15 35 0 36 1 34 38 -3 61 -10 80 -31 85 -26 7 -20 42 7 42 18 0
20 8 23 71 3 79 23 111 61 99 18 -6 20 -13 16 -83 -4 -66 -1 -79 15 -95 23
-21 26 -37 6 -37 -19 0 -22 -11 -18 -69 l4 -49 41 -4 c23 -2 61 0 85 5 l42 9
0 48 c0 46 -2 49 -27 52 -39 4 -39 42 -1 46 27 3 27 4 30 84 2 62 7 83 20 91
24 16 49 -8 39 -36 -4 -12 -5 -48 -3 -79 3 -49 7 -58 23 -58 10 0 23 -9 29
-20 11 -21 9 -22 -25 -24 -17 -1 -20 -9 -23 -51 l-3 -51 60 -13 c50 -11 68
-11 118 1 l58 15 3 46 c3 41 1 46 -20 49 -15 2 -24 11 -26 26 -3 18 1 22 22
22 29 0 39 22 35 78 -1 20 1 51 5 69 6 27 15 35 47 42 3 0 10 -4 16 -10z
m-3377 -29 c11 -7 12 -14 3 -32 -6 -13 -10 -45 -9 -73 1 -53 -1 -50 59 -54 34
-2 17 -28 -22 -35 -31 -5 -40 -11 -43 -28 -4 -28 -26 -35 -34 -11 -4 10 -16
28 -28 41 -20 23 -21 24 -2 37 16 12 18 24 14 84 -3 39 -3 73 0 76 8 8 46 6
62 -5z m2648 -18 c3 -16 -2 -22 -16 -22 -15 0 -18 5 -14 25 5 30 26 28 30 -3z
m-366 -38 c-27 -18 -29 -71 -7 -134 23 -66 12 -57 -19 15 -33 75 -30 107 12
129 34 18 44 11 14 -10z m2276 -49 c10 -9 -2 -13 -60 -19 -54 -6 -77 2 -64 22
5 9 115 7 124 -3z m232 -6 c0 -5 -4 -9 -10 -9 -5 0 -10 7 -10 16 0 8 5 12 10
9 6 -3 10 -10 10 -16z m-3842 -25 c-4 -3 -2 -19 3 -36 5 -18 5 -48 0 -70 -8
-33 -6 -40 11 -49 33 -18 3 -27 -76 -24 -95 5 -93 4 -73 16 14 8 17 24 17 83
0 40 3 76 7 79 3 4 31 7 61 7 31 0 53 -3 50 -6z m242 -4 c8 -5 11 -12 8 -16
-4 -4 -2 -16 4 -28 7 -11 13 -39 15 -61 2 -23 9 -43 19 -48 14 -8 14 -11 3
-18 -8 -5 -25 -9 -39 -10 -17 -1 -20 -3 -7 -6 38 -10 2 -23 -65 -23 -58 0 -69
3 -65 15 4 8 2 17 -3 20 -17 10 -11 25 10 25 18 0 20 7 20 80 l0 80 43 0 c23
0 49 -4 57 -10z m200 -7 c0 -5 -5 -15 -10 -23 -8 -12 -10 -11 -10 8 0 12 5 22
10 22 6 0 10 -3 10 -7z m3125 -33 c0 -18 -43 -26 -57 -12 -16 16 2 33 30 30
16 -2 27 -9 27 -18z m-300 -140 c39 -17 -321 -18 -370 -2 -22 8 18 10 160 10
105 1 199 -3 210 -8z m-3195 -16 c0 -8 -5 -12 -10 -9 -6 4 -8 11 -5 16 9 14
15 11 15 -7z m250 -5 c0 -5 -9 -9 -20 -9 -22 0 -27 16 -7 23 15 5 27 -1 27
-14z m856 -18 c-8 -13 14 -73 35 -97 23 -24 24 -43 5 -50 -8 -3 -13 -14 -11
-25 2 -10 -2 -19 -8 -19 -7 -1 -6 -5 4 -13 8 -7 18 -19 21 -28 12 -31 -27 -10
-41 22 -7 17 -31 42 -52 56 l-40 26 -30 -22 c-33 -24 -47 -29 -91 -30 -15 -1
-41 -13 -58 -28 -25 -24 -31 -38 -36 -88 -7 -71 5 -93 55 -100 19 -2 39 -9 44
-14 29 -29 139 0 187 51 21 21 43 38 50 38 6 0 20 10 30 23 l18 22 8 -29 c17
-71 -23 -254 -67 -302 -10 -11 -19 -27 -19 -36 0 -9 -7 -21 -15 -28 -9 -7 -14
-19 -11 -27 3 -7 2 -13 -3 -13 -5 0 -11 -9 -14 -20 -3 -11 -12 -20 -21 -20
-15 0 -19 18 -20 81 0 9 -6 16 -13 16 -9 0 -11 -8 -7 -21 3 -14 2 -17 -4 -8
-5 7 -26 15 -48 18 -21 3 -46 8 -54 11 -8 4 -21 5 -27 4 -7 -1 -13 3 -13 9 0
5 4 10 10 10 5 0 17 11 26 25 14 21 14 30 4 55 -15 35 -35 54 -50 45 -7 -4 -1
-14 15 -27 14 -10 25 -29 25 -40 0 -18 -4 -20 -32 -13 -18 4 -41 7 -50 6 -57
-5 -75 -5 -95 3 -18 5 -23 4 -23 -8 0 -9 -4 -16 -9 -16 -20 0 -22 21 -4 48 21
29 53 158 53 207 0 22 -12 44 -39 73 -34 38 -46 44 -102 54 -35 6 -79 11 -96
12 -34 1 -46 22 -19 32 18 7 70 84 56 84 -5 0 -10 8 -10 17 0 9 3 14 6 10 4
-3 12 0 19 7 8 8 52 16 107 20 52 4 128 15 169 25 78 20 295 29 285 12z m344
-12 c0 -5 -16 -9 -36 -9 -19 0 -33 4 -30 8 7 12 66 13 66 1z m-980 -65 c0 -8
-4 -12 -10 -9 -5 3 -10 10 -10 16 0 5 5 9 10 9 6 0 10 -7 10 -16z m917 -164
c14 -27 17 -98 5 -117 -4 -6 -7 14 -7 46 0 61 -19 101 -39 81 -5 -5 -17 -10
-25 -10 -13 1 -12 4 4 16 26 19 47 14 62 -16z m-333 4 c5 -12 2 -15 -10 -10
-8 3 -22 6 -30 6 -8 0 -14 5 -14 10 0 17 47 11 54 -6z m-2354 -23 c0 -11 -4
-22 -9 -25 -11 -7 -23 22 -15 35 9 16 24 10 24 -10z m4270 -62 c12 -55 12 -62
-3 -71 -9 -5 -19 -7 -23 -6 -4 2 -8 38 -10 81 -2 64 -1 77 10 68 7 -6 19 -39
26 -72z m769 34 c0 -31 -2 -34 -9 -18 -12 28 -12 55 0 55 6 0 10 -17 9 -37z
m-2399 15 c0 -16 -31 -48 -47 -48 -19 0 -16 10 10 35 25 26 37 30 37 13z
m-2700 -38 c0 -11 -4 -20 -10 -20 -5 0 -10 9 -10 20 0 11 5 20 10 20 6 0 10
-9 10 -20z m2303 -20 c5 -21 -1 -24 -27 -14 -13 5 -14 9 -5 20 16 19 26 17 32
-6z m79 -2 c-7 -7 -12 -8 -12 -2 0 6 3 14 7 17 3 4 9 5 12 2 2 -3 -1 -11 -7
-17z m-386 -29 c3 -6 0 -15 -7 -20 -22 -14 -28 -11 -22 11 6 22 18 26 29 9z
m711 -11 c-3 -8 -6 -5 -6 6 -1 11 2 17 5 13 3 -3 4 -12 1 -19z m-434 5 c-7 -2
-19 -2 -25 0 -7 3 -2 5 12 5 14 0 19 -2 13 -5z m376 -58 c-12 -12 -14 -11 -15
8 0 12 -4 31 -9 42 -5 13 0 10 15 -8 19 -24 21 -31 9 -42z m1406 35 c3 -5 -1
-10 -10 -10 -9 0 -13 5 -10 10 3 6 8 10 10 10 2 0 7 -4 10 -10z m538 -5 c-4
-15 -36 -12 -41 3 -3 9 3 13 19 10 13 -1 23 -7 22 -13z m265 -2 c2 -8 -6 -13
-22 -13 -26 0 -40 12 -29 24 11 11 46 2 51 -11z m-3855 -8 c-1 -5 -8 -14 -17
-20 -18 -11 -42 7 -31 25 8 13 51 9 48 -5z m258 -2 c0 -10 0 -48 -1 -84 -1
-61 1 -67 21 -72 23 -6 23 -6 4 -27 -16 -18 -17 -23 -5 -31 13 -8 12 -12 -5
-25 -18 -13 -20 -27 -21 -127 -1 -165 3 -195 29 -199 29 -4 28 -32 -2 -36 -18
-3 -22 -8 -18 -28 5 -30 -15 -48 -48 -40 -21 5 -24 11 -19 35 5 23 2 29 -16
34 -27 7 -24 44 4 39 17 -3 18 10 18 210 -1 266 2 340 12 356 11 18 46 15 47
-5z m282 10 c2 -5 1 -42 -3 -83 -6 -67 -5 -77 13 -91 19 -16 19 -17 1 -27 -14
-8 -16 -13 -6 -25 10 -11 9 -17 -3 -27 -12 -10 -15 -41 -15 -166 0 -146 1
-154 19 -154 22 0 41 -22 24 -27 -6 -2 -19 -10 -29 -17 -15 -11 -16 -17 -6
-29 10 -11 9 -17 -3 -27 -23 -19 -70 -1 -70 25 0 11 -8 23 -17 27 -11 4 -18
18 -18 33 0 22 3 25 21 20 20 -7 20 -4 18 172 -2 191 8 357 23 386 9 17 43 24
51 10z m1078 -34 c-9 -23 -10 -22 -10 11 -1 23 2 31 9 24 7 -7 7 -19 1 -35z
m548 32 c8 -6 10 -14 5 -22 -11 -19 -5 -151 8 -166 7 -9 7 -18 -2 -28 -14 -17
-15 -17 23 -33 30 -13 28 -32 -4 -32 -18 0 -19 -8 -19 -141 0 -132 1 -142 22
-158 22 -19 18 -41 -8 -41 -10 0 -13 -6 -9 -19 9 -30 -15 -41 -58 -28 -41 13
-46 21 -19 32 15 6 14 8 -5 16 -14 5 -23 17 -23 30 0 15 5 19 15 15 13 -5 15
15 15 144 0 140 -1 149 -20 155 -23 7 -27 25 -6 25 22 0 28 17 14 39 -9 15 -9
25 0 46 7 14 12 57 12 95 0 66 5 77 35 79 6 0 16 -3 24 -8z m539 -3 c-7 -19
-38 -22 -38 -4 0 10 9 16 21 16 12 0 19 -5 17 -12z m-4170 -10 c-7 -20 -58
-23 -58 -4 0 11 10 16 31 16 20 0 29 -4 27 -12z m641 3 c19 -12 4 -31 -25 -31
-13 0 -24 2 -24 4 0 2 -3 11 -6 20 -5 12 0 16 17 16 13 0 30 -4 38 -9z m2729
0 c10 -6 13 -35 10 -117 -2 -83 0 -112 11 -120 11 -9 10 -13 -4 -28 -13 -12
-21 -51 -32 -139 -16 -145 -15 -162 13 -163 37 -2 50 -15 29 -31 -11 -7 -27
-13 -38 -13 -14 0 -17 -5 -13 -17 13 -32 -60 -47 -84 -18 -8 9 -8 15 -2 15 7
0 9 13 5 35 -3 20 -1 35 4 35 10 0 24 137 28 262 1 32 4 61 8 64 3 4 2 15 -4
26 -8 14 -7 28 1 49 8 17 10 46 6 73 -9 61 1 96 28 96 11 0 27 -4 34 -9z m529
-81 c2 -46 9 -90 14 -97 6 -7 8 -21 4 -33 -4 -13 -1 -22 9 -26 14 -5 13 -8 -4
-23 -17 -14 -19 -31 -21 -141 -2 -158 -2 -160 15 -160 13 0 26 -20 26 -41 0
-5 -8 -9 -18 -9 -25 0 -34 -11 -22 -25 7 -8 4 -17 -9 -29 -18 -16 -21 -16 -44
-1 -16 10 -23 22 -20 34 3 12 -2 20 -16 24 -27 7 -27 27 -1 34 15 4 20 14 20
42 1 20 3 85 6 145 6 99 4 111 -12 123 -18 13 -18 15 -1 24 13 8 15 14 7 29
-6 11 -7 28 -1 42 4 13 6 52 4 87 -5 80 0 93 34 89 26 -3 27 -4 30 -88z
m-3589 68 c-7 -20 -58 -23 -58 -4 0 11 10 16 31 16 20 0 29 -4 27 -12z m572
-3 c0 -16 -35 -21 -44 -6 -8 12 4 21 26 21 10 0 18 -7 18 -15z m238 -2 c2 -8
-6 -13 -22 -13 -28 0 -43 15 -24 23 20 8 41 3 46 -10z m991 -33 c0 -9 -4 -8
-9 5 -5 11 -9 27 -9 35 0 9 4 8 9 -5 5 -11 9 -27 9 -35z m369 -47 c-6 -58 -14
-93 -25 -106 -11 -12 -14 -21 -7 -25 6 -4 13 -15 17 -24 4 -13 -3 -20 -31 -29
-20 -6 -45 -18 -54 -27 -16 -13 -18 -12 -27 12 -6 14 -17 26 -26 26 -8 0 -15
5 -15 10 0 6 -9 20 -20 32 -11 12 -27 44 -36 72 -9 28 -23 63 -30 77 -24 48
27 74 76 39 17 -12 30 -18 30 -13 0 4 25 8 54 9 44 0 83 14 101 33 1 1 -3 -38
-7 -86z m667 68 c-3 -6 -11 -11 -17 -11 -6 0 -6 6 2 15 14 17 26 13 15 -4z
m-29 -38 c-6 -16 7 -10 38 16 18 15 18 15 7 -6 -6 -12 -11 -32 -11 -45 0 -30
-17 -48 -46 -48 -29 0 -39 16 -23 36 6 8 13 24 14 37 4 37 5 38 16 32 6 -4 8
-14 5 -22z m-1664 -62 c1 -40 6 -75 10 -77 4 -3 4 -13 -1 -23 -5 -9 -13 -85
-16 -167 l-7 -150 26 -12 c30 -13 35 -32 9 -32 -10 0 -25 -5 -33 -10 -12 -8
-13 -13 -3 -29 15 -23 -4 -45 -31 -35 -17 7 -22 34 -6 34 21 0 9 28 -15 34
-31 8 -33 33 -2 38 21 3 22 7 24 133 1 71 5 140 8 153 4 15 0 24 -10 28 -8 4
-15 12 -15 20 0 8 -5 22 -11 32 -14 22 0 73 21 80 9 3 11 -1 7 -12 -4 -10 -1
-16 8 -16 11 0 15 11 15 38 0 34 8 58 16 49 2 -1 4 -35 6 -76z m2688 -41 c6
-11 20 -20 31 -20 12 0 19 -5 17 -12 -5 -14 -65 -31 -84 -24 -17 7 -18 48 -2
64 17 17 26 15 38 -8z m-1040 -2 c18 -11 18 -14 3 -30 -14 -16 -14 -18 1 -24
19 -7 21 -33 3 -40 -11 -4 -14 -36 -13 -144 1 -125 3 -141 20 -153 21 -15 15
-54 -5 -41 -12 7 -12 5 10 -37 12 -24 9 -38 -29 -145 -23 -66 -50 -128 -60
-139 -19 -21 -41 -89 -60 -190 -7 -33 -25 -87 -41 -120 -29 -63 -48 -141 -74
-316 -9 -57 -29 -160 -45 -229 -16 -69 -50 -219 -75 -335 -25 -115 -47 -214
-49 -220 -2 -5 -4 77 -5 184 -1 106 -3 196 -5 200 -10 15 -16 359 -9 489 5 78
5 142 1 142 -5 0 -8 22 -8 48 0 46 3 51 61 107 34 33 70 64 82 70 11 5 22 15
24 21 5 16 -125 62 -181 64 -28 1 -53 3 -58 6 -20 12 -90 -39 -128 -95 -39
-58 -39 -59 -12 -45 15 7 32 14 38 14 26 0 26 -157 1 -255 -37 -142 -57 -375
-73 -839 l-7 -193 39 -6 c21 -4 76 -7 122 -7 68 0 82 -3 82 -16 0 -8 -4 -13
-9 -10 -5 3 -56 9 -114 12 -125 8 -122 11 -113 -124 l6 -87 -19 50 c-82 220
-117 368 -108 460 3 28 2 41 -2 31 -7 -18 -8 -18 -14 5 -16 58 -29 264 -24
379 5 124 20 237 58 443 20 106 45 194 34 117 -7 -45 50 108 65 173 5 26 10
88 10 137 0 49 5 101 12 117 l12 28 3 -35 c8 -86 15 -103 66 -157 28 -30 61
-59 72 -65 18 -10 18 -9 -2 14 -13 13 -23 34 -23 46 0 18 4 20 35 15 36 -6 44
4 23 25 -18 18 48 73 106 88 27 7 53 11 57 8 4 -2 16 7 27 21 12 15 22 21 24
13 7 -21 30 3 24 27 -4 16 1 25 19 35 14 7 25 19 25 26 0 11 29 28 36 21 14
-14 9 -71 -8 -95 -11 -15 1 -5 26 21 95 100 116 144 79 166 -16 9 -16 10 -2
11 14 0 15 7 6 57 -7 40 -6 76 1 118 6 33 14 87 18 120 8 81 10 84 44 63z
m-882 -89 c2 -13 14 -63 28 -111 14 -49 25 -98 24 -110 -4 -48 1 -69 18 -75
38 -14 42 -43 5 -43 -25 0 -25 -1 -9 -19 17 -19 17 -20 -4 -31 -21 -11 -90 -6
-90 7 0 3 8 12 18 19 16 11 15 13 -10 23 -33 12 -37 36 -8 44 17 4 20 14 21
64 2 125 -3 228 -12 238 -13 13 -11 27 4 23 6 -3 13 -15 15 -29z m1962 5 c0
-15 -38 -28 -67 -22 -27 5 -22 31 7 38 33 8 60 1 60 -16z m-4160 -98 c0 -6 -8
-16 -19 -23 -15 -9 -23 -8 -41 4 l-23 16 23 12 c26 14 60 9 60 -9z m291 -6
c-2 -8 -6 -26 -9 -40 -3 -14 -9 -27 -13 -30 -4 -3 2 -25 14 -49 l22 -43 -23
-19 c-13 -10 -27 -31 -31 -46 -7 -26 -8 -24 -25 26 -16 50 -16 54 0 79 21 32
20 102 -1 118 -21 16 -6 25 35 22 25 -2 34 -7 31 -18z m349 6 c0 -8 -5 -16
-12 -18 -6 -2 -12 -15 -13 -28 -2 -30 -25 -40 -25 -11 0 34 -1 36 -16 44 -23
13 -6 27 32 27 23 0 34 -5 34 -14z m254 6 c3 -5 -6 -19 -19 -30 -30 -26 -35
-27 -35 -8 0 8 -9 18 -20 21 -11 4 -18 11 -15 16 8 11 82 12 89 1z m231 -11
c9 -16 -28 -31 -48 -20 -10 6 -15 14 -12 20 8 12 52 12 60 0z m3000 -1 c3 -5
-1 -10 -9 -10 -9 0 -16 5 -16 10 0 6 4 10 9 10 6 0 13 -4 16 -10z m-1462 -23
c-3 -5 -11 -6 -19 -3 -7 3 -16 1 -19 -4 -8 -13 -65 -13 -65 -1 0 6 15 11 33
13 51 6 76 4 70 -5z m124 -22 c6 -18 -23 -55 -44 -55 -18 0 -16 17 5 45 20 28
30 31 39 10z m1338 -47 c-5 -35 -8 -69 -8 -75 0 -7 -2 -11 -5 -9 -4 4 -6 101
-3 134 0 6 6 12 12 12 8 0 9 -19 4 -62z m1186 51 c19 -10 20 -12 4 -29 -16
-17 -15 -19 4 -30 25 -13 28 -50 5 -50 -13 0 -14 -3 -4 -15 7 -8 16 -12 21 -9
5 3 9 -2 9 -10 0 -9 -8 -16 -19 -16 -10 0 -22 -7 -25 -16 -10 -27 -7 -244 4
-245 6 -1 16 -2 22 -3 7 0 14 -8 16 -17 2 -11 -6 -18 -27 -22 -23 -5 -28 -10
-24 -26 6 -23 -17 -37 -43 -27 -15 6 -15 8 0 25 17 19 17 20 -6 23 -29 4 -37
37 -11 44 18 5 19 15 17 125 -2 97 -5 124 -19 139 -19 21 -13 40 13 40 16 1
16 1 0 11 -22 12 -24 49 -3 49 18 0 19 12 3 29 -11 10 -9 15 6 27 24 17 31 17
57 3z m-2571 -7 c0 -13 -12 -22 -22 -16 -10 6 -1 24 13 24 5 0 9 -4 9 -8z
m2309 -1 c8 -5 11 -16 7 -26 -4 -12 0 -18 14 -22 27 -7 25 -39 -2 -48 l-23 -7
25 -7 c33 -9 38 -37 8 -44 -22 -6 -23 -10 -25 -138 -2 -109 0 -130 11 -126 8
3 22 -3 32 -14 16 -18 16 -19 -13 -25 -21 -4 -33 -14 -41 -36 -14 -37 -47 -36
-47 2 0 17 -7 26 -25 30 -34 8 -33 35 2 35 l27 -1 -2 128 c-2 111 -4 128 -18
128 -9 0 -22 7 -29 15 -16 19 3 45 34 45 20 1 20 1 3 15 -11 7 -25 11 -33 8
-10 -3 -14 2 -14 18 0 17 3 20 11 12 9 -9 16 -8 27 4 13 13 13 16 1 24 -12 8
-11 12 5 24 22 17 44 19 65 6z m-555 -7 c9 -3 16 -14 16 -24 0 -10 7 -20 15
-24 20 -7 19 -36 -1 -36 -14 0 -14 -1 0 -16 20 -19 20 -23 2 -43 -16 -18 -26
-256 -12 -280 5 -7 3 -30 -4 -52 -12 -35 -17 -39 -46 -39 -39 0 -50 13 -28 31
14 12 14 14 -5 21 -23 8 -29 48 -7 48 22 0 26 24 26 151 0 118 0 119 -25 125
-21 5 -22 8 -10 20 7 8 18 14 24 14 6 0 11 5 11 10 0 6 -9 10 -20 10 -11 0
-20 5 -20 11 0 6 9 13 20 16 22 6 27 28 9 39 -24 14 24 30 55 18z m279 -27
c25 -34 35 -100 17 -122 -5 -6 -10 -64 -11 -129 -1 -109 0 -119 21 -141 l22
-24 -21 -13 c-12 -7 -21 -23 -21 -35 0 -19 -6 -23 -29 -23 -31 0 -49 14 -31
25 18 11 10 24 -17 27 -21 2 -29 9 -31 27 -2 13 0 21 6 17 6 -3 17 -3 26 0 13
5 16 26 16 135 0 118 -2 129 -20 139 -26 14 -25 30 3 38 22 6 22 6 -3 12 -36
8 -38 36 -3 45 26 6 26 8 10 19 -22 17 -22 23 1 29 34 9 40 7 65 -26z m-3916
1 c-3 -8 -6 -5 -6 6 -1 11 2 17 5 13 3 -3 4 -12 1 -19z m-239 -49 c7 -22 10
-44 7 -49 -3 -6 -6 -38 -6 -72 -1 -48 3 -65 17 -75 15 -11 16 -17 5 -39 -9
-20 -9 -29 0 -41 15 -18 -1 -36 -27 -31 -12 2 -19 12 -19 28 -1 21 -5 25 -29
22 -34 -4 -49 14 -34 41 7 14 13 16 21 8 6 -6 19 -11 28 -11 15 0 17 11 17 70
-1 62 -3 71 -24 85 -13 9 -24 21 -24 27 0 13 42 78 50 78 3 0 11 -18 18 -41z
m-618 16 c10 -13 9 -19 -6 -36 -33 -36 -78 -9 -60 37 7 19 50 18 66 -1z m874
-14 c16 -17 16 -23 4 -48 -18 -38 -54 -43 -69 -9 -10 20 -9 30 5 51 20 30 37
32 60 6z m250 -36 c7 -29 1 -45 -18 -45 -25 0 -39 27 -26 49 15 29 37 26 44
-4z m1606 -7 c0 -5 -9 -8 -20 -5 -11 3 -20 2 -20 -3 0 -4 -29 -7 -64 -6 -35 0
-62 5 -59 9 3 5 15 6 27 3 11 -3 27 -1 35 3 20 13 101 12 101 -1z m1390 -38
c0 -5 11 -10 25 -10 16 0 25 -6 25 -15 0 -9 -9 -15 -24 -15 -19 0 -23 -4 -19
-19 6 -25 -7 -31 -50 -24 -41 6 -50 23 -13 23 14 0 28 5 31 10 4 6 -7 10 -24
10 -25 0 -31 4 -31 21 0 13 5 19 13 16 6 -2 21 -1 32 4 28 11 35 11 35 -1z
m-3865 -71 c4 -11 4 -23 0 -27 -7 -7 -25 17 -25 36 0 20 18 14 25 -9z m3045
-50 c0 -5 -4 -9 -10 -9 -5 0 -10 7 -10 16 0 8 5 12 10 9 6 -3 10 -10 10 -16z
m-3316 -4 c16 0 31 -5 33 -11 5 -16 -40 -36 -73 -32 -23 2 -30 8 -32 31 -3 26
-1 28 20 21 13 -4 36 -8 52 -9z m289 -4 c34 -18 35 -39 1 -47 -22 -6 -24 -8
-11 -16 22 -12 10 -38 -18 -38 -31 0 -40 16 -18 29 14 8 16 12 6 22 -20 20
-14 77 6 66 3 -1 18 -9 34 -16z m3324 -23 c-3 -7 -5 -2 -5 12 0 14 2 19 5 13
2 -7 2 -19 0 -25z m-2693 16 c27 -10 18 -31 -16 -39 -31 -6 -32 -7 -10 -15 38
-16 22 -48 -18 -35 -15 5 -19 12 -14 30 4 18 2 23 -13 22 -12 -1 -19 6 -21 21
-3 20 1 22 36 22 22 0 47 -3 56 -6z m225 -9 c11 -11 -12 -35 -34 -35 -20 0
-25 5 -25 26 0 24 3 25 27 19 16 -4 30 -8 32 -10z m2486 -51 c19 -15 17 -16
-32 -10 -44 6 -69 1 -143 -23 -163 -55 -237 -99 -330 -198 -85 -89 -69 -58 26
52 63 74 176 146 271 173 85 25 180 28 208 6z m-3610 -14 c0 -19 -41 -25 -60
-10 -22 18 -8 32 28 28 20 -2 32 -8 32 -18z m1135 10 c13 -9 13 -11 0 -20 -18
-12 -21 -12 -39 -1 -15 10 -7 31 12 31 7 0 19 -5 27 -10z m2717 -22 c-3 -8 -6
-5 -6 6 -1 11 2 17 5 13 3 -3 4 -12 1 -19z m19 -85 c8 -8 14 -21 14 -29 0 -13
-5 -12 -30 2 -24 15 -28 23 -24 43 11 49 18 57 22 27 2 -16 10 -35 18 -43z
m-1632 21 c9 -3 16 -9 16 -13 0 -9 -51 -33 -57 -27 -4 3 18 46 24 46 1 0 8 -3
17 -6z m-281 -38 c-3 -40 -20 -58 -44 -45 -24 12 -25 55 -1 68 29 18 47 8 45
-23z m-539 -2 c7 -28 -7 -54 -30 -54 -20 0 -29 46 -12 64 20 23 35 19 42 -10z
m286 12 c0 -7 -9 -25 -20 -39 -16 -20 -20 -41 -21 -104 0 -53 -3 -71 -9 -57
-5 12 -7 49 -6 83 2 34 -1 64 -6 67 -12 8 -10 38 4 52 16 16 58 15 58 -2z
m2418 5 c21 -13 11 -56 -13 -56 -20 0 -31 25 -21 51 6 16 15 17 34 5z m-1948
-152 c0 -5 -4 -9 -10 -9 -5 0 -10 7 -10 16 0 8 5 12 10 9 6 -3 10 -10 10 -16z
m-2122 -49 c3 -9 -1 -11 -11 -7 -8 3 -18 3 -21 0 -22 -22 -105 -5 -90 18 8 14
117 4 122 -11z m204 -1 c29 3 39 -13 15 -22 -23 -8 -67 5 -67 20 0 9 5 11 12
6 7 -4 25 -6 40 -4z m83 -10 c-8 -12 -45 -12 -45 0 0 10 30 20 43 14 4 -3 5
-9 2 -14z m343 -1 c2 -11 -10 -17 -45 -21 -55 -6 -63 -3 -63 24 0 18 5 20 53
16 36 -3 53 -9 55 -19z m-118 -3 c0 -16 -9 -19 -36 -8 -16 6 -16 7 2 14 29 11
34 10 34 -6z m388 -2 c-3 -14 -13 -18 -49 -17 -98 2 -105 34 -8 34 52 0 60 -2
57 -17z m202 1 c0 -15 -63 -25 -72 -11 -4 6 -4 15 -2 19 8 13 74 6 74 -8z
m997 -6 c-3 -8 -6 -5 -6 6 -1 11 2 17 5 13 3 -3 4 -12 1 -19z m873 8 c0 -2 -8
-10 -17 -17 -16 -13 -17 -12 -4 4 13 16 21 21 21 13z m-1611 -35 c7 -5 10 -14
7 -20 -10 -16 -56 -14 -56 2 0 26 23 35 49 18z m263 -3 c18 -15 13 -102 -6
-95 -6 3 -19 -2 -28 -11 -17 -14 -18 -12 -18 24 0 22 -5 45 -11 51 -8 8 -4 15
12 27 28 19 31 19 51 4z m2464 1 c3 -6 1 -16 -5 -22 -9 -9 -14 -8 -21 3 -5 8
-10 18 -10 23 0 11 28 8 36 -4z m-4111 -74 c0 -11 -79 -19 -102 -11 -8 3 -11
11 -8 16 8 14 110 9 110 -5z m280 0 c0 -12 -50 -19 -73 -10 -14 5 -14 7 -2 16
19 12 75 7 75 -6z m349 9 c13 -5 14 -9 5 -20 -12 -15 -58 -17 -99 -4 l-25 7
25 11 c29 12 71 15 94 6z m254 -16 c-3 -8 -21 -13 -43 -13 -22 0 -40 5 -42 13
-3 8 9 12 42 12 33 0 45 -4 43 -12z m223 -3 c0 -12 -47 -19 -69 -10 -15 6 -15
8 3 16 26 10 66 7 66 -6z m3947 -4 c-5 -23 -108 -30 -108 -7 0 14 10 16 98 22
7 0 11 -6 10 -15z m172 -7 c0 -17 -26 -19 -36 -3 -7 12 15 31 28 23 4 -3 8
-12 8 -20z m83 17 c9 -1 17 -7 17 -14 0 -14 -72 -18 -85 -5 -12 12 3 25 27 22
13 -1 31 -3 41 -3z m-523 -23 c0 -15 -9 -18 -59 -18 -56 0 -79 9 -67 28 3 4
32 8 65 8 51 -1 61 -4 61 -18z m-284 -11 c13 -13 -2 -17 -64 -20 -62 -2 -87 7
-62 23 16 10 115 8 126 -3z m539 -36 c8 -14 -30 -32 -49 -25 -9 3 -16 10 -16
14 0 18 55 26 65 11z m234 0 c19 -12 -23 -34 -49 -26 -25 8 -26 22 -2 28 28 8
36 7 51 -2z m-527 -12 c17 -9 18 -13 7 -20 -20 -12 -57 -11 -65 2 -3 6 0 15 7
20 18 11 26 11 51 -2z m-297 -9 c8 -13 -20 -24 -41 -16 -20 8 -9 26 16 26 10
0 22 -5 25 -10z m-3371 -149 c9 -7 16 -18 16 -23 0 -14 -361 -8 -470 8 -52 7
-115 14 -140 14 -25 0 -52 5 -60 11 -11 7 83 9 312 7 251 -3 330 -7 342 -17z
m343 -23 c-3 -7 -5 -2 -5 12 0 14 2 19 5 13 2 -7 2 -19 0 -25z m1578 3 c22 -5
32 -9 23 -10 -10 -1 -19 -13 -23 -31 -4 -16 -13 -30 -20 -30 -10 0 -12 7 -5
31 10 33 -4 46 -40 36 -11 -3 -20 -1 -20 4 0 11 31 11 85 0z m-47 -53 c-10
-47 -13 -52 -25 -47 -14 6 6 89 22 89 10 0 11 -9 3 -42z m150 35 c-10 -2 -28
-2 -40 0 -13 2 -5 4 17 4 22 1 32 -1 23 -4z m-191 -40 c-3 -10 -5 -4 -5 12 0
17 2 24 5 18 2 -7 2 -21 0 -30z m256 30 c-13 -2 -23 -10 -24 -16 -3 -50 -15
-87 -29 -87 -15 0 -12 30 3 31 8 0 8 2 1 5 -11 4 -10 23 2 62 2 7 18 11 36 11
24 -1 27 -3 11 -6z m-2163 -14 c15 -4 -17 -8 -85 -8 -76 0 -105 2 -95 9 17 11
142 11 180 -1z m2090 -3 c0 -36 -14 -76 -26 -76 -17 0 -18 22 -1 39 10 10 8
12 -8 11 -36 -4 -45 0 -45 18 0 14 2 15 10 2 8 -13 10 -12 10 3 0 12 8 17 30
17 19 0 30 -5 30 -14z m117 -8 c-3 -8 -6 -5 -6 6 -1 11 2 17 5 13 3 -3 4 -12
1 -19z m-21 -4 c-3 -9 -6 -22 -6 -30 0 -8 -7 -14 -15 -14 -17 0 -18 4 -9 38 4
12 13 22 21 22 10 0 13 -6 9 -16z m-1239 -30 c-3 -3 -12 -4 -19 -1 -8 3 -5 6
6 6 11 1 17 -2 13 -5z m950 -31 c-3 -10 -5 -4 -5 12 0 17 2 24 5 18 2 -7 2
-21 0 -30z m93 22 c0 -8 -7 -15 -15 -15 -10 0 -15 -10 -15 -29 0 -16 -3 -43
-7 -61 -4 -24 -3 -31 5 -26 7 4 12 2 12 -3 0 -6 -8 -11 -19 -11 -20 0 -20 2 0
108 7 34 15 52 25 52 8 0 14 -7 14 -15z m207 -17 c-3 -7 -5 -2 -5 12 0 14 2
19 5 13 2 -7 2 -19 0 -25z m-1314 15 c-7 -2 -19 -2 -25 0 -7 3 -2 5 12 5 14 0
19 -2 13 -5z m105 -100 c-1 -60 -3 -97 -5 -83 -2 14 -7 36 -10 50 -6 22 -7 21
-13 -15 l-7 -40 -2 37 c-1 32 -4 36 -23 31 -19 -4 -20 -3 -8 6 8 6 25 11 38
11 12 0 22 5 22 10 0 6 -5 10 -11 10 -8 0 -8 4 0 14 9 11 9 15 -1 20 -10 5
-10 7 0 12 6 3 12 10 12 15 0 6 -4 7 -10 4 -5 -3 -10 -2 -10 4 0 8 8 13 27 20
2 1 2 -47 1 -106z m1052 97 c0 -5 -7 -10 -15 -10 -8 0 -15 5 -15 10 0 6 7 10
15 10 8 0 15 -4 15 -10z m-1216 -7 c-5 -5 -12 -12 -16 -18 -4 -6 -8 -2 -8 8 0
9 7 17 17 17 9 0 12 -3 7 -7z m46 -13 c0 -5 -4 -10 -10 -10 -5 0 -10 5 -10 10
0 6 5 10 10 10 6 0 10 -4 10 -10z m50 -14 c0 -19 -4 -23 -19 -19 -25 6 -24 43
1 43 12 0 18 -8 18 -24z m1254 9 c-7 -17 -20 -20 -28 -6 -7 10 3 21 20 21 8 0
11 -6 8 -15z m-1334 -5 c0 -5 -2 -10 -4 -10 -3 0 -8 5 -11 10 -3 6 -1 10 4 10
6 0 11 -4 11 -10z m1097 -12 c-3 -8 -6 -5 -6 6 -1 11 2 17 5 13 3 -3 4 -12 1
-19z m82 -21 c-5 -18 -9 -44 -9 -59 0 -18 -5 -28 -15 -28 -11 0 -12 5 -5 26 6
14 10 43 10 64 0 30 3 38 14 34 11 -4 12 -13 5 -37z m149 18 c12 0 22 -5 22
-12 0 -18 -24 -21 -37 -4 -9 13 -12 5 -18 -42 -5 -40 -12 -57 -22 -57 -8 0
-12 4 -8 9 3 5 9 30 14 55 6 35 5 46 -4 46 -8 0 -16 -6 -18 -12 -3 -7 -6 -4
-6 7 -2 41 -22 -3 -24 -52 -1 -35 -6 -49 -14 -46 -8 3 -11 14 -7 27 3 12 6 39
7 59 l2 37 45 -7 c25 -4 55 -7 68 -8z m-256 -75 c9 0 7 19 -8 67 -5 17 -4 17
10 -1 20 -25 21 -65 1 -73 -22 -8 -26 -1 -31 49 l-4 43 11 -42 c6 -24 15 -43
21 -43z m-1025 28 c-3 -8 -6 -5 -6 6 -1 11 2 17 5 13 3 -3 4 -12 1 -19z m63
12 c0 -5 -4 -10 -10 -10 -5 0 -10 5 -10 10 0 6 5 10 10 10 6 0 10 -4 10 -10z
m-113 -22 c-3 -8 -6 -5 -6 6 -1 11 2 17 5 13 3 -3 4 -12 1 -19z m1340 -10 c-3
-8 -6 -5 -6 6 -1 11 2 17 5 13 3 -3 4 -12 1 -19z m-282 -85 c4 -5 5 4 1 19 -3
15 -2 29 3 33 16 9 22 -12 12 -38 -7 -19 -6 -28 5 -37 11 -10 14 -9 14 9 0 12
6 21 15 21 17 0 19 -14 5 -40 -7 -13 -6 -19 4 -23 9 -4 16 4 20 24 8 41 26 36
26 -7 0 -29 -3 -35 -16 -30 -8 3 -12 2 -9 -4 3 -6 16 -11 28 -11 17 -1 18 -2
5 -6 -20 -5 -107 58 -125 90 -7 12 -12 38 -11 57 0 34 1 34 7 -7 4 -24 11 -46
16 -50z m65 32 c0 -8 -7 -15 -15 -15 -9 0 -12 6 -9 15 4 8 10 15 15 15 5 0 9
-7 9 -15z m207 -17 c-3 -7 -5 -2 -5 12 0 14 2 19 5 13 2 -7 2 -19 0 -25z
m-157 7 c0 -8 -7 -15 -15 -15 -8 0 -15 7 -15 15 0 8 7 15 15 15 8 0 15 -7 15
-15z m39 -42 c-5 -25 -7 -48 -5 -50 1 -2 14 1 27 6 16 6 18 10 7 10 -11 1 -15
7 -11 21 3 11 9 20 14 20 5 0 9 -9 9 -20 0 -11 6 -20 14 -20 8 0 14 6 13 13
-1 40 5 57 19 57 15 0 15 -2 0 -25 -22 -34 -19 -45 4 -16 11 13 20 19 20 14 0
-16 -43 -50 -77 -61 -48 -16 -70 -7 -65 29 2 16 8 29 12 29 5 0 6 9 3 20 -4
13 0 20 10 20 12 0 13 -8 6 -47z m51 32 c0 -8 -7 -15 -15 -15 -16 0 -20 12 -8
23 11 12 23 8 23 -8z m-1254 -41 c8 3 14 1 14 -4 0 -6 -11 -10 -25 -10 -22 0
-25 4 -24 33 l1 32 10 -28 c6 -18 15 -26 24 -23z m131 -24 c1 -11 -2 -18 -8
-15 -11 7 -12 35 -1 35 4 0 8 -9 9 -20z m-47 -75 c4 3 7 13 5 23 -1 9 0 11 2
4 3 -7 9 -9 16 -5 6 3 -3 -10 -19 -30 -16 -21 -35 -35 -43 -32 -21 8 -70 49
-70 59 -1 5 9 0 22 -12 29 -28 35 -27 40 1 3 15 4 12 3 -7 -1 -16 5 -31 12
-33 8 -3 12 9 13 39 2 30 3 35 6 15 2 -15 8 -25 13 -22z m-63 13 c-3 -8 -6 -5
-6 6 -1 11 2 17 5 13 3 -3 4 -12 1 -19z m-1926 -3 c0 -13 -41 -19 -41 -7 0 11
20 22 33 18 5 -1 8 -6 8 -11z m257 -7 c-3 -7 -13 -13 -23 -13 -10 0 -20 6 -22
13 -3 7 5 12 22 12 17 0 25 -5 23 -12z m268 -9 c3 -6 1 -16 -4 -21 -13 -13 -4
-207 10 -225 16 -19 0 -33 -39 -33 -29 0 -34 3 -28 18 8 20 14 77 19 187 3 44
5 81 5 83 2 7 31 0 37 -9z m320 -1 c-3 -7 -9 -21 -12 -30 -4 -10 -11 -18 -16
-18 -6 0 -8 7 -4 15 3 8 1 15 -4 15 -6 0 -10 7 -10 15 0 9 10 15 26 15 17 0
24 -4 20 -12z m295 -3 c0 -5 -9 -11 -21 -13 -20 -3 -27 8 -13 22 10 9 34 3 34
-9z m1946 -3 c100 -10 184 -20 186 -22 3 -3 -8 -66 -24 -140 -20 -92 -32 -189
-39 -305 -12 -201 -48 -641 -58 -705 -7 -43 -9 -45 -42 -48 -35 -3 -145 27
-249 67 -59 22 -83 22 -29 0 l33 -14 -27 -5 c-27 -5 -26 -6 28 -42 30 -20 50
-39 44 -43 -16 -10 -1 -25 26 -25 14 0 22 4 19 10 -3 6 0 10 8 10 8 0 18 -7
21 -16 5 -12 14 -14 38 -9 18 4 36 12 39 17 7 11 109 0 126 -14 9 -7 16 -3 23
17 12 30 30 29 46 -4 6 -12 14 -22 18 -22 18 2 24 -1 44 -19 16 -15 22 -17 22
-7 0 43 -111 124 -152 112 -18 -6 -21 -5 -11 5 19 21 105 25 140 7 69 -36 132
-140 149 -247 9 -54 -20 -80 -93 -84 l-52 -3 19 25 c21 26 25 79 10 137 -7 27
-8 25 -9 -17 -1 -39 -6 -50 -32 -72 -20 -17 -42 -26 -66 -26 -19 0 -69 -9
-111 -20 -51 -13 -109 -19 -172 -19 -70 1 -111 -4 -158 -20 -34 -11 -69 -18
-77 -15 -14 6 -19 -5 -16 -33 2 -17 -51 -49 -76 -45 -15 2 -23 10 -23 22 0 26
94 121 148 151 27 14 42 30 42 42 0 15 -5 18 -22 14 -61 -14 -131 -47 -145
-68 -22 -34 -75 -89 -85 -89 -4 0 -8 11 -8 25 0 14 -5 25 -10 25 -6 0 -1 19
11 42 14 28 23 37 29 28 5 -7 16 -9 29 -5 18 5 20 9 10 21 -7 8 -19 12 -27 9
-10 -3 -12 -1 -8 10 21 51 20 51 4 37 -9 -7 -31 -42 -49 -78 -19 -36 -38 -68
-43 -71 -4 -3 -19 5 -32 19 -24 23 -24 24 -9 76 15 49 29 65 37 42 2 -5 13 -7
25 -4 l23 6 -22 30 c-27 39 -18 54 53 91 30 15 43 24 29 21 -51 -13 -103 -50
-127 -91 -14 -24 -27 -43 -31 -43 -13 0 -42 34 -42 49 0 26 70 132 82 125 7
-4 8 -2 4 4 -8 13 11 22 79 41 72 20 198 42 210 37 15 -5 19 26 40 334 9 124
22 317 30 429 8 112 15 242 15 288 l0 83 28 0 c15 -1 109 -9 209 -18z m-1990
-29 c4 -16 7 -80 7 -143 l0 -115 -24 0 c-19 0 -24 5 -22 20 2 11 3 72 4 135 0
63 2 118 5 123 9 15 23 6 30 -20z m3710 -23 c2 -14 3 -73 4 -132 1 -85 4 -108
15 -108 19 0 18 -26 -1 -34 -19 -7 -19 -33 -2 -51 11 -10 13 -71 12 -286 l-1
-273 -32 -8 c-33 -9 -37 -20 -34 -98 1 -34 -33 71 -69 210 -28 110 -30 122
-25 275 l4 159 34 12 c41 13 52 51 16 56 -31 4 -29 31 2 38 22 5 26 13 32 65
4 33 7 89 7 125 -2 84 -2 82 19 78 10 -2 18 -14 19 -28z m288 20 c4 -6 2 -16
-3 -23 -10 -12 -21 -246 -12 -245 54 4 70 -26 20 -37 -34 -7 -39 -29 -11 -44
17 -9 18 -28 19 -280 2 -261 1 -270 -18 -276 -18 -6 -20 -16 -21 -83 0 -42 -2
-87 -5 -99 -3 -19 1 -23 21 -23 34 0 32 -26 -2 -35 -27 -6 -27 -7 -8 -21 18
-14 18 -17 5 -27 -15 -11 -44 -182 -34 -198 5 -9 216 -22 235 -14 25 10 21
192 -4 207 -18 9 -18 10 0 23 16 12 16 17 5 36 -11 16 -11 23 -2 29 8 5 10 32
5 98 -7 88 -9 92 -36 104 -33 15 -31 -8 -33 377 l-1 174 49 14 c36 11 46 17
35 24 -8 5 -22 9 -31 9 -11 0 -18 8 -18 20 0 12 6 20 13 19 35 -4 36 0 39 133
3 120 5 133 22 136 10 2 22 0 26 -5 5 -4 10 -65 11 -135 3 -125 3 -128 25
-128 36 0 38 -18 4 -35 -35 -18 -35 -19 -14 -40 19 -18 19 -20 10 -320 l-7
-230 -29 -12 -28 -12 5 -98 c3 -54 8 -100 10 -103 2 -2 16 -4 30 -5 41 0 39
-23 -3 -31 -31 -6 -34 -8 -19 -17 16 -9 17 -11 3 -21 -12 -9 -16 -36 -19 -111
l-4 -100 45 -3 c49 -4 81 -22 39 -23 -65 -1 -250 -1 -391 0 -133 1 -158 3
-158 16 0 12 15 15 74 15 46 0 78 4 82 12 10 16 11 188 0 188 -4 0 -5 11 -2
25 6 22 3 26 -24 32 -31 6 -39 32 -12 41 7 2 12 0 11 -5 -4 -21 3 -22 21 -5
17 16 21 35 24 104 l4 84 -28 11 c-27 10 -28 14 -35 94 -7 88 -10 235 -7 377
2 83 2 84 32 95 35 13 34 29 -1 37 -35 9 -33 45 3 44 23 -1 27 3 32 40 9 63
10 192 2 205 -4 6 -4 16 -1 21 8 13 52 13 60 0z m-4261 -62 c3 -24 7 -75 9
-115 4 -68 3 -72 -19 -77 -43 -11 -54 2 -53 60 1 29 8 65 15 80 8 14 14 34 14
44 0 25 10 50 20 50 5 0 11 -19 14 -42z m1254 -155 c0 -104 -4 -165 -7 -138
l-6 50 -13 -32 c-8 -17 -11 -36 -8 -41 3 -5 -1 -18 -9 -28 -17 -21 -7 -29
-112 94 -39 45 -41 51 -26 63 23 19 73 90 73 103 0 6 -7 1 -15 -11 -9 -13 -30
-23 -59 -27 -37 -6 -45 -11 -49 -34 -3 -15 -1 -31 4 -37 5 -5 9 -21 9 -36 0
-28 -20 -42 -44 -33 -8 3 -23 -3 -34 -14 -18 -18 -18 -19 -1 -31 34 -20 17
-71 -23 -71 -10 0 -18 -7 -18 -15 0 -21 -24 -29 -49 -15 -18 9 -19 14 -10 31
6 12 17 18 25 15 9 -3 14 1 14 11 0 9 8 25 18 36 24 29 -2 13 -61 -37 -41 -34
-51 -38 -67 -28 -16 10 -18 9 -14 -3 4 -8 3 -15 -1 -15 -8 0 -55 52 -55 61 0
8 200 119 215 119 14 0 41 28 34 35 -3 2 -52 -20 -110 -49 -117 -60 -149 -63
-172 -16 -21 41 -6 56 88 87 47 15 84 32 81 38 -4 12 -4 13 -101 -26 -105 -42
-135 -43 -153 -6 -8 16 -11 35 -8 43 11 29 131 64 219 64 82 0 95 -7 109 -54
9 -30 13 -35 15 -20 3 17 10 20 36 17 29 -4 30 -3 15 10 -16 13 -16 15 6 25
17 8 23 17 19 30 -2 11 0 23 6 26 17 11 172 44 209 45 l32 1 -2 -187z m-2088
-3 c13 -9 13 -11 0 -20 -8 -5 -21 -8 -28 -5 -8 3 -18 5 -23 5 -5 0 -9 4 -9 9
0 8 13 14 40 20 3 0 12 -4 20 -9z m288 -7 c2 -9 -9 -13 -40 -13 -40 1 -42 2
-23 16 23 17 56 15 63 -3z m-280 -189 c4 -26 -22 -38 -49 -24 -36 20 -21 53
21 48 17 -2 26 -10 28 -24z m267 12 c25 -18 13 -46 -20 -46 -27 0 -41 20 -31
45 7 19 26 19 51 1z m246 4 c24 -13 25 -36 1 -49 -22 -12 -52 4 -52 28 0 32
17 39 51 21z m319 -15 c16 -19 6 -45 -18 -45 -25 0 -44 23 -36 44 8 20 38 21
54 1z m30 -110 c0 -9 -16 -12 -57 -11 -46 1 -58 5 -61 18 -5 25 54 38 90 20
16 -7 28 -19 28 -27z m-297 16 c15 -15 8 -19 -38 -21 -61 -3 -65 -2 -65 20 0
17 6 19 46 16 25 -2 51 -9 57 -15z m-266 -8 c6 -16 -65 -29 -79 -15 -6 6 -7
15 -3 22 9 14 77 9 82 -7z m1717 -154 c-17 -19 -60 -28 -50 -10 6 10 -13 29
-29 29 -20 1 -15 21 12 42 l28 22 28 -32 c27 -30 28 -33 11 -51z m-479 -119
c25 -49 45 -70 84 -86 95 -40 154 1 171 121 l8 50 1 -46 c1 -52 -21 -123 -46
-152 -12 -12 -25 -16 -43 -12 l-25 6 25 -22 25 -21 -54 6 -54 5 19 -21 c11
-11 28 -24 39 -28 19 -8 19 -8 1 -16 -12 -5 -21 -2 -27 8 -4 8 -27 21 -49 28
-23 8 -46 23 -52 34 -6 11 -17 27 -24 34 -23 22 -44 113 -44 188 0 104 14 126
21 34 3 -42 14 -91 24 -110z m420 120 c3 -5 1 -10 -4 -10 -6 0 -11 5 -11 10 0
6 2 10 4 10 3 0 8 -4 11 -10z m-1957 -12 c-5 -15 -33 -22 -54 -14 -24 9 -6 26
27 26 20 0 29 -4 27 -12z m290 0 c-6 -16 -33 -22 -56 -13 -14 5 -14 7 -2 15
22 14 62 12 58 -2z m237 3 c3 -5 1 -12 -4 -15 -10 -7 -7 -208 3 -224 4 -6 1
-20 -6 -31 -14 -22 -9 -31 19 -35 10 -2 19 -13 21 -24 3 -17 -2 -22 -21 -22
-23 0 -25 -4 -30 -67 -5 -65 -2 -242 5 -273 2 -10 -6 -16 -26 -18 -23 -3 -28
0 -22 13 3 9 8 46 12 83 3 36 7 69 10 73 2 4 0 10 -6 14 -5 3 -10 44 -10 91 0
51 -4 84 -10 84 -20 0 -23 31 -4 45 16 12 17 17 6 35 -10 16 -10 25 -2 35 7 9
11 54 10 122 -1 59 -1 111 -1 116 1 10 49 9 56 -2z m296 -96 c-2 -55 -5 -108
-6 -117 -2 -9 3 -19 11 -22 16 -6 19 -36 4 -36 -22 0 -21 -31 1 -49 l24 -19
-28 -13 c-17 -7 -27 -20 -27 -33 0 -20 -6 -124 -14 -244 -3 -50 -2 -54 23 -63
14 -6 48 -8 76 -5 94 10 161 9 180 -2 19 -10 18 -11 -10 -22 -16 -6 -48 -9
-70 -6 -83 12 -262 16 -286 8 -16 -6 -38 -5 -64 3 -39 13 -39 13 -10 15 98 6
129 10 135 17 4 4 5 31 1 58 -3 28 -2 88 2 135 11 119 8 134 -27 140 -41 7
-44 28 -7 41 32 11 43 39 16 39 -19 0 -19 20 0 34 11 8 16 35 17 106 1 53 -1
101 -6 108 -5 8 1 16 16 22 50 20 53 13 49 -95z m1120 78 c13 -16 12 -17 -3
-4 -10 7 -18 15 -18 17 0 8 8 3 21 -13z m119 2 c14 -17 5 -36 -15 -28 -10 3
-15 -1 -15 -15 0 -29 -26 -48 -45 -32 -8 7 -15 20 -15 29 1 14 2 14 11 -2 13
-22 32 -11 24 14 -12 38 30 64 55 34z m15 -84 c-36 -27 -44 -46 -22 -54 9 -4
9 -6 0 -6 -7 -1 -17 8 -23 19 -8 16 -5 26 21 55 25 28 34 33 45 24 12 -9 8
-16 -21 -38z m41 -67 c-52 -45 -68 -32 -20 17 27 28 41 36 49 28 7 -7 -1 -21
-29 -45z m37 -40 c-50 -42 -62 -33 -22 17 26 33 34 38 46 27 12 -10 9 -17 -24
-44z m77 -13 c20 -29 15 -46 -12 -36 -8 3 -25 -6 -38 -20 -16 -17 -26 -22 -31
-14 -4 7 4 24 17 38 14 16 22 33 18 43 -9 29 22 21 46 -11z m-2215 -20 c7 -12
-2 -17 -40 -25 -33 -7 -61 6 -51 23 9 13 82 15 91 2z m265 -5 c0 -25 -69 -36
-100 -16 -13 9 -13 11 0 20 24 15 100 13 100 -4z m770 -11 c0 -8 -9 -15 -19
-15 -24 0 -36 16 -19 23 24 10 38 7 38 -8z m1230 -30 c15 -18 5 -31 -25 -37
-30 -5 -32 -44 -3 -53 20 -6 20 -8 5 -12 -10 -3 -24 1 -32 7 -16 13 -20 50 -6
50 5 0 14 14 21 30 14 34 22 37 40 15z m-2001 -29 c16 -19 6 -23 -63 -22 -62
1 -91 22 -39 28 74 8 91 8 102 -6z m779 -23 c3 -19 -1 -21 -33 -19 -42 4 -50
9 -41 31 10 26 70 16 74 -12z m1292 -47 c0 -9 6 -16 14 -16 7 0 25 -16 40 -35
26 -33 26 -34 7 -45 -32 -17 -44 -12 -37 15 5 19 3 23 -10 18 -9 -3 -21 3 -30
16 -19 26 -31 27 -39 0 -6 -16 -9 -18 -21 -8 -13 11 -13 14 3 22 10 6 19 10
19 11 1 1 5 11 8 23 6 18 4 20 -14 16 -24 -7 -27 13 -4 38 15 17 17 17 40 -10
13 -16 24 -36 24 -45z m2478 -49 c1 -4 2 -13 2 -21 0 -24 -59 -1 -60 24 0 8
55 4 58 -3z m-2499 -43 c-15 -19 -28 -9 -22 16 4 16 8 18 19 9 11 -9 11 -15 3
-25z m2929 17 c3 -8 -1 -12 -9 -9 -7 2 -15 10 -17 17 -3 8 1 12 9 9 7 -2 15
-10 17 -17z m-2894 -56 c-5 -11 -9 -12 -19 -2 -9 8 -10 14 -2 19 16 9 27 0 21
-17z m613 3 c34 -7 65 -17 70 -22 12 -13 -103 3 -143 20 -63 26 -41 27 73 2z
m-1771 -147 c25 -39 25 -41 20 -182 -3 -79 -8 -236 -11 -349 -4 -137 -9 -206
-17 -211 -8 -5 -6 -13 7 -25 11 -12 14 -19 6 -22 -6 -2 -11 -9 -11 -16 0 -7
-9 -21 -21 -32 l-21 -19 6 233 c4 128 7 329 7 447 0 118 2 215 4 215 3 0 16
-18 31 -39z m-1236 -21 c0 -5 -4 -10 -10 -10 -5 0 -10 5 -10 10 0 6 5 10 10
10 6 0 10 -4 10 -10z m270 -10 c0 -5 -7 -10 -16 -10 -8 0 -12 5 -9 10 3 6 10
10 16 10 5 0 9 -4 9 -10z m2170 -45 c0 -8 -4 -15 -8 -15 -13 0 -32 23 -32 37
0 11 5 11 20 3 11 -6 20 -17 20 -25z m106 -213 c-12 -11 -36 9 -36 30 l1 23
20 -24 c11 -13 17 -26 15 -29z m63 -36 c-13 -14 -33 9 -25 30 6 16 8 16 21 -2
8 -12 10 -23 4 -28z m-2350 -154 c6 -10 13 -81 17 -158 5 -120 4 -141 -9 -153
-10 -7 -25 -10 -38 -6 -18 6 -20 12 -15 48 3 23 8 74 11 112 7 92 14 169 15
173 1 7 11 0 19 -16z m4791 3 c0 -8 -6 -15 -14 -15 -17 0 -28 14 -19 24 12 12
33 6 33 -9z m-4210 -9 c0 -8 -4 -17 -9 -20 -5 -4 -5 -22 0 -43 12 -52 11 -227
-1 -239 -12 -12 -29 -172 -23 -207 6 -31 -8 -40 -41 -27 -28 10 -27 33 4 60
24 20 34 157 13 168 -10 6 -15 40 -17 134 -2 69 -6 130 -9 135 -7 11 2 25 28
40 28 16 55 16 55 -1z m4470 5 c0 -11 -26 -22 -34 -14 -12 12 -5 23 14 23 11
0 20 -4 20 -9z m288 -3 c-7 -20 -48 -23 -48 -4 0 11 9 16 26 16 16 0 24 -5 22
-12z m-4518 -2 c0 -2 -7 -6 -15 -10 -8 -3 -15 -1 -15 4 0 6 7 10 15 10 8 0 15
-2 15 -4z m394 -5 c3 -5 -7 -11 -22 -14 -30 -6 -45 0 -37 14 8 12 52 12 59 0z
m-1466 -48 c6 -16 16 -73 23 -128 6 -55 13 -103 15 -106 2 -4 -3 -12 -11 -19
-21 -17 -69 -4 -61 16 3 9 6 72 6 140 0 123 8 149 28 97z m5549 -16 c8 -61 13
-67 53 -73 46 -8 52 -21 13 -30 -50 -10 -53 -13 -53 -43 0 -16 6 -31 13 -34
23 -8 -9 -29 -39 -25 -27 3 -29 6 -26 39 2 21 -1 40 -7 44 -13 8 -14 39 -2 63
20 39 34 78 32 87 -2 6 1 7 5 2 4 -4 9 -18 11 -30z m-4481 -142 c4 -27 13 -58
22 -68 23 -26 4 -38 -51 -31 -49 7 -61 18 -28 27 16 4 20 19 27 113 8 104 8
107 17 59 4 -27 10 -72 13 -100z m3963 133 c-4 -34 3 -54 23 -63 30 -14 33
-31 6 -38 -12 -4 -24 -4 -26 -2 -9 9 -21 82 -16 98 6 20 16 23 13 5z m234 -23
c-7 -21 -13 -19 -13 6 0 11 4 18 10 14 5 -3 7 -12 3 -20z m37 -39 c58 -17 68
-46 16 -46 -33 0 -36 -2 -36 -30 0 -17 7 -33 18 -39 23 -13 3 -34 -29 -29 -21
3 -23 7 -20 51 2 42 0 47 -18 47 -15 0 -21 6 -21 21 0 15 5 19 15 15 9 -3 18
1 21 9 4 8 7 15 8 15 0 0 21 -6 46 -14z m-230 -127 c0 -5 -4 -9 -10 -9 -5 0
-10 7 -10 16 0 8 5 12 10 9 6 -3 10 -10 10 -16z m-3642 -51 c-3 -7 -15 -13
-28 -13 -13 0 -25 6 -27 13 -3 8 6 12 27 12 21 0 30 -4 28 -12z m50 -60 c-7
-20 -65 -33 -91 -21 l-22 11 25 10 c36 15 93 15 88 0z m-1481 -20 c-3 -8 -6
-5 -6 6 -1 11 2 17 5 13 3 -3 4 -12 1 -19z m5563 -93 c0 -21 -17 -35 -40 -35
-15 0 -22 40 -10 54 16 21 50 8 50 -19z m-272 -3 c2 -12 -1 -22 -6 -22 -6 0
-17 -3 -26 -6 -21 -8 -32 22 -16 42 18 21 44 13 48 -14z m-5298 9 c0 -5 -7
-14 -15 -21 -8 -7 -15 -18 -15 -24 0 -6 7 -3 15 8 18 24 51 14 40 -12 -4 -9
-10 -30 -13 -47 l-6 -30 -6 30 c-4 21 -12 31 -28 33 -26 4 -26 5 -7 42 15 28
35 40 35 21z m270 -42 c0 -14 -19 -21 -40 -14 -19 6 -27 35 -14 48 7 7 54 -22
54 -34z m780 34 c-1 -14 -30 -47 -36 -41 -8 8 14 48 26 48 6 0 10 -3 10 -7z
m25 -34 c0 -7 -8 -15 -17 -17 -18 -3 -25 18 -11 32 10 10 28 1 28 -15z m-278
-91 c-2 -13 -4 -5 -4 17 -1 22 1 32 4 23 2 -10 2 -28 0 -40z m-788 -86 c-1
-47 -3 -52 -9 -27 -12 45 -12 97 0 90 6 -3 9 -32 9 -63z m1469 -4 c-5 -15 -33
-22 -54 -14 -24 9 -6 26 27 26 20 0 29 -4 27 -12z m3616 -37 c7 -10 -17 -21
-45 -21 -10 0 -19 7 -19 15 0 17 55 22 64 6z m-3897 -93 c-3 -8 -6 -5 -6 6 -1
11 2 17 5 13 3 -3 4 -12 1 -19z m3853 -78 c0 -55 -4 -90 -10 -90 -10 0 -12
155 -3 173 10 18 13 1 13 -83z m-3854 -7 c-10 -10 -19 5 -10 18 6 11 8 11 12
0 2 -7 1 -15 -2 -18z"/>
<path d="M2030 5290 c0 -5 5 -10 10 -10 6 0 10 5 10 10 0 6 -4 10 -10 10 -5 0
-10 -4 -10 -10z"/>
<path d="M2926 5234 c-7 -18 0 -34 15 -34 5 0 9 11 9 25 0 28 -15 34 -24 9z"/>
<path d="M2955 5190 c-4 -6 -3 -16 3 -22 13 -13 23 4 13 21 -7 10 -10 10 -16
1z"/>
<path d="M2934 4048 l-19 -23 23 19 c12 11 22 21 22 23 0 8 -8 2 -26 -19z"/>
<path d="M2800 1624 l-25 -15 25 7 c14 3 29 10 35 15 15 14 -7 10 -35 -7z"/>
<path d="M2995 1620 c3 -5 11 -10 16 -10 6 0 7 5 4 10 -3 6 -11 10 -16 10 -6
0 -7 -4 -4 -10z"/>
<path d="M3010 1559 c0 -5 5 -7 10 -4 6 3 10 8 10 11 0 2 -4 4 -10 4 -5 0 -10
-5 -10 -11z"/>
<path d="M2072 2533 c6 -7 14 -13 19 -13 5 0 9 6 9 13 0 7 -9 13 -19 13 -15 0
-17 -3 -9 -13z"/>
<path d="M5741 6234 c0 -11 3 -14 6 -6 3 7 2 16 -1 19 -3 4 -6 -2 -5 -13z"/>
<path d="M0 5375 c0 -52 1 -55 26 -55 24 0 25 3 22 46 -2 38 -7 48 -25 55 -22
8 -23 6 -23 -46z"/>
<path d="M4363 4030 c0 -30 2 -43 4 -27 2 15 2 39 0 55 -2 15 -4 2 -4 -28z"/>
<path d="M4362 3940 c0 -14 2 -19 5 -12 2 6 2 18 0 25 -3 6 -5 1 -5 -13z"/>
<path d="M4360 3869 c0 -5 5 -7 10 -4 6 3 10 8 10 11 0 2 -4 4 -10 4 -5 0 -10
-5 -10 -11z"/>
</g>
</svg>
